<svg width="515" height="602" viewBox="0 0 515 602" fill="none" xmlns="http://www.w3.org/2000/svg">
<path opacity="0.5" d="M305.212 375.075L306.287 375.558L305.212 375.075ZM330.022 345.396L329.053 346.084L330.022 345.396ZM347.662 425.888L346.539 425.53L347.662 425.888ZM306.287 375.558C311.017 365.106 319.436 353.866 330.336 341.862C341.227 329.867 354.534 317.174 368.984 303.805C397.853 277.095 431.275 247.702 458.735 216.03C486.191 184.365 507.831 150.268 512.998 114.081C518.177 77.8081 506.776 39.6551 468.62 0L466.914 1.65965C504.671 40.9013 515.715 78.3554 510.658 113.767C505.59 149.265 484.313 182.932 456.961 214.48C429.611 246.022 396.331 275.292 367.393 302.065C352.938 315.438 339.565 328.192 328.598 340.27C317.64 352.338 309.023 363.798 304.138 374.593L306.287 375.558ZM330.992 344.708C297.416 296.557 229.112 270.806 161.917 302.197C94.7495 333.575 29.0495 421.86 0 600.977L2.33216 601.337C31.3285 422.546 96.7831 335.234 162.896 304.35C228.98 273.478 296.081 298.801 329.053 346.084L330.992 344.708ZM304.138 374.593C291.087 403.43 298.155 427.693 310.648 439.177C316.883 444.908 324.553 447.505 331.699 445.636C338.873 443.759 345.15 437.482 348.785 426.245L346.539 425.53C343.068 436.263 337.268 441.731 331.126 443.337C324.956 444.951 318.075 442.769 312.252 437.417C300.636 426.737 293.584 403.626 306.287 375.558L304.138 374.593ZM348.785 426.245C354.079 409.878 350.396 390.641 345.086 375.046C339.767 359.424 332.725 347.194 330.992 344.708L329.053 346.084C330.647 348.371 337.595 360.399 342.85 375.835C348.114 391.298 351.588 409.921 346.539 425.53L348.785 426.245Z" fill="#E8E7FA"/>
</svg>
