<svg width="24" height="24" viewBox="0 0 24 24" fill="none" xmlns="http://www.w3.org/2000/svg">
<path  id="line-1"  d="M18 16.7498C17.84 16.7498 17.69 16.6998 17.55 16.5998C17.22 16.3498 17.15 15.8798 17.4 15.5498C18.97 13.4598 18.97 10.5398 17.4 8.44978C17.15 8.11978 17.22 7.64978 17.55 7.39978C17.88 7.14978 18.35 7.21978 18.6 7.54978C20.56 10.1698 20.56 13.8298 18.6 16.4498C18.45 16.6498 18.23 16.7498 18 16.7498Z" fill="#292D32"/>
<path id="line-2"  d="M19.83 19.2498C19.67 19.2498 19.52 19.1998 19.38 19.0998C19.05 18.8498 18.98 18.3798 19.23 18.0498C21.9 14.4898 21.9 9.50978 19.23 5.94978C18.98 5.61978 19.05 5.14978 19.38 4.89978C19.71 4.64978 20.18 4.71978 20.43 5.04978C23.5 9.13978 23.5 14.8598 20.43 18.9498C20.29 19.1498 20.06 19.2498 19.83 19.2498Z" fill="#292D32"/>
<path opacity="0.4" d="M15.75 7.41021V16.5902C15.75 18.3102 15.13 19.6002 14.02 20.2202C13.57 20.4702 13.07 20.5902 12.55 20.5902C11.75 20.5902 10.89 20.3202 10.01 19.7702L7.09 17.9402C6.89 17.8202 6.66 17.7502 6.43 17.7502H5.5V6.25021H6.43C6.66 6.25021 6.89 6.18021 7.09 6.06021L10.01 4.23021C11.47 3.32021 12.9 3.16021 14.02 3.78021C15.13 4.40021 15.75 5.69021 15.75 7.41021Z" fill="#292D32"/>
<path d="M5.5 6.25V17.75H5C2.58 17.75 1.25 16.42 1.25 14V10C1.25 7.58 2.58 6.25 5 6.25H5.5Z" fill="#292D32"/>
</svg>
