<?xml version="1.0" standalone="no"?>
<svg xmlns:xlink="http://www.w3.org/1999/xlink" id="wave" style="transform:rotate(0deg); transition: 0.3s" viewBox="0 0 1440 490" version="1.1" xmlns="http://www.w3.org/2000/svg"><defs><linearGradient id="sw-gradient-0" x1="0" x2="0" y1="1" y2="0"><stop stop-color="rgba(77.2, 62, 243, 1)" offset="0%"/><stop stop-color="rgba(11, 188.877, 255, 1)" offset="100%"/></linearGradient></defs><path style="transform:translate(0, 0px); opacity:1" fill="url(#sw-gradient-0)" d="M0,392L24,392C48,392,96,392,144,359.3C192,327,240,261,288,228.7C336,196,384,196,432,220.5C480,245,528,294,576,269.5C624,245,672,147,720,122.5C768,98,816,147,864,212.3C912,278,960,359,1008,343C1056,327,1104,212,1152,171.5C1200,131,1248,163,1296,147C1344,131,1392,65,1440,81.7C1488,98,1536,196,1584,220.5C1632,245,1680,196,1728,220.5C1776,245,1824,343,1872,318.5C1920,294,1968,147,2016,114.3C2064,82,2112,163,2160,236.8C2208,310,2256,376,2304,383.8C2352,392,2400,343,2448,269.5C2496,196,2544,98,2592,114.3C2640,131,2688,261,2736,285.8C2784,310,2832,229,2880,171.5C2928,114,2976,82,3024,57.2C3072,33,3120,16,3168,65.3C3216,114,3264,229,3312,302.2C3360,376,3408,408,3432,424.7L3456,441L3456,490L3432,490C3408,490,3360,490,3312,490C3264,490,3216,490,3168,490C3120,490,3072,490,3024,490C2976,490,2928,490,2880,490C2832,490,2784,490,2736,490C2688,490,2640,490,2592,490C2544,490,2496,490,2448,490C2400,490,2352,490,2304,490C2256,490,2208,490,2160,490C2112,490,2064,490,2016,490C1968,490,1920,490,1872,490C1824,490,1776,490,1728,490C1680,490,1632,490,1584,490C1536,490,1488,490,1440,490C1392,490,1344,490,1296,490C1248,490,1200,490,1152,490C1104,490,1056,490,1008,490C960,490,912,490,864,490C816,490,768,490,720,490C672,490,624,490,576,490C528,490,480,490,432,490C384,490,336,490,288,490C240,490,192,490,144,490C96,490,48,490,24,490L0,490Z"/><defs><linearGradient id="sw-gradient-1" x1="0" x2="0" y1="1" y2="0"><stop stop-color="rgba(83.969, 100.604, 223.445, 1)" offset="0%"/><stop stop-color="rgba(35.868, 137.322, 189.293, 0.39)" offset="100%"/></linearGradient></defs><path style="transform:translate(0, 50px); opacity:0.9" fill="url(#sw-gradient-1)" d="M0,147L24,187.8C48,229,96,310,144,310.3C192,310,240,229,288,163.3C336,98,384,49,432,40.8C480,33,528,65,576,81.7C624,98,672,98,720,130.7C768,163,816,229,864,269.5C912,310,960,327,1008,294C1056,261,1104,180,1152,196C1200,212,1248,327,1296,318.5C1344,310,1392,180,1440,122.5C1488,65,1536,82,1584,122.5C1632,163,1680,229,1728,277.7C1776,327,1824,359,1872,351.2C1920,343,1968,294,2016,253.2C2064,212,2112,180,2160,163.3C2208,147,2256,147,2304,171.5C2352,196,2400,245,2448,277.7C2496,310,2544,327,2592,326.7C2640,327,2688,310,2736,326.7C2784,343,2832,392,2880,392C2928,392,2976,343,3024,326.7C3072,310,3120,327,3168,294C3216,261,3264,180,3312,171.5C3360,163,3408,229,3432,261.3L3456,294L3456,490L3432,490C3408,490,3360,490,3312,490C3264,490,3216,490,3168,490C3120,490,3072,490,3024,490C2976,490,2928,490,2880,490C2832,490,2784,490,2736,490C2688,490,2640,490,2592,490C2544,490,2496,490,2448,490C2400,490,2352,490,2304,490C2256,490,2208,490,2160,490C2112,490,2064,490,2016,490C1968,490,1920,490,1872,490C1824,490,1776,490,1728,490C1680,490,1632,490,1584,490C1536,490,1488,490,1440,490C1392,490,1344,490,1296,490C1248,490,1200,490,1152,490C1104,490,1056,490,1008,490C960,490,912,490,864,490C816,490,768,490,720,490C672,490,624,490,576,490C528,490,480,490,432,490C384,490,336,490,288,490C240,490,192,490,144,490C96,490,48,490,24,490L0,490Z"/></svg>