<?xml version="1.0" encoding="UTF-8" standalone="no" ?>
<!DOCTYPE svg PUBLIC "-//W3C//DTD SVG 1.1//EN" "http://www.w3.org/Graphics/SVG/1.1/DTD/svg11.dtd">
<svg xmlns="http://www.w3.org/2000/svg" xmlns:xlink="http://www.w3.org/1999/xlink" version="1.1" width="1080" height="1080" viewBox="0 0 1080 1080" xml:space="preserve">
<desc>Created with Fabric.js 5.2.4</desc>
<defs>
</defs>
<g transform="matrix(1 0 0 1 540 540)" id="d90046b1-3609-4dc1-a16d-876b1a0b834b"  >
<rect style="stroke: none; stroke-width: 1; stroke-dasharray: none; stroke-linecap: butt; stroke-dashoffset: 0; stroke-linejoin: miter; stroke-miterlimit: 4; fill: rgb(255,255,255); fill-rule: nonzero; opacity: 1; visibility: hidden;" vector-effect="non-scaling-stroke"  x="-540" y="-540" rx="0" ry="0" width="1080" height="1080" />
</g>
<g transform="matrix(1 0 0 1 540 540)" id="61980619-eb63-4d0d-8dc0-b1a061f3eb77"  >
</g>
<g transform="matrix(3.6 0 0 3.6 540 540)" id="waveShape"  >
<linearGradient id="SVGID_Gradient1_3" gradientUnits="objectBoundingBox" gradientTransform="matrix(1 0 0 1 0 0)"  x1="0" y1="0" x2="0" y2="1">
<stop offset="5%" style="stop-color:rgb(4,3,65);stop-opacity: 1"/>
<stop offset="33%" style="stop-color:rgb(25,17,150);stop-opacity: 1"/>
<stop offset="50%" style="stop-color:rgb(4,4,106);stop-opacity: 1"/>
<stop offset="100%" style="stop-color:rgb(0,212,255);stop-opacity: 1"/>
</linearGradient>
<path style="stroke: none; stroke-width: 1; stroke-dasharray: none; stroke-linecap: butt; stroke-dashoffset: 0; stroke-linejoin: miter; stroke-miterlimit: 4; fill: url(#SVGID_Gradient1_3); fill-rule: nonzero; opacity: 1;"  transform=" translate(-150, -150)" d="M 300 300 L 300 2.5 C 300 2.5 299.4 2.4 298.9 2.4 C 298.9 2.4 273.4 0.10000000000000009 258.4 0 C 243.39999999999998 0 217.79999999999998 2.4 217.79999999999998 2.4 C 205.49999999999997 3.5 187.49999999999997 4.2 185.89999999999998 4.3 C 183.89999999999998 4.2 166.2 3.5 153.89999999999998 2.4 C 153.89999999999998 2.4 128.09999999999997 2.6999999999999997 113.09999999999998 0 C 98.09999999999998 0 72.29999999999998 2.4 72.29999999999998 2.4 C 59.999999999999986 3.5 41.899999999999984 4.2 40.29999999999998 4.3 C 38.29999999999998 4.2 20.299999999999983 3.5 8.09999999999998 2.4 C 8.09999999999998 2.4 4.9999999999999805 2.1 -1.9539925233402755e-14 1.7 L -1.9539925233402755e-14 300 L 300 300 z" stroke-linecap="round" />
</g>
<g transform="matrix(NaN NaN NaN NaN 0 0)"  >
<g style=""   >
</g>
</g>
<g transform="matrix(NaN NaN NaN NaN 0 0)"  >
<g style=""   >
</g>
</g>
<g transform="matrix(3.6 0 0 3.6 540 540)" id="waveShape"  >
<linearGradient id="SVGID_Gradient1_7" gradientUnits="objectBoundingBox" gradientTransform="matrix(1 0 0 1 0 0)"  x1="0" y1="0" x2="0" y2="1">
<stop offset="5%" style="stop-color:rgb(4,3,65);stop-opacity: 1"/>
<stop offset="33%" style="stop-color:rgb(25,17,150);stop-opacity: 1"/>
<stop offset="50%" style="stop-color:rgb(4,4,106);stop-opacity: 1"/>
<stop offset="100%" style="stop-color:rgb(0,212,255);stop-opacity: 1"/>
</linearGradient>
<path style="stroke: none; stroke-width: 1; stroke-dasharray: none; stroke-linecap: butt; stroke-dashoffset: 0; stroke-linejoin: miter; stroke-miterlimit: 4; fill: url(#SVGID_Gradient1_7); fill-rule: nonzero; opacity: 1;"  transform=" translate(-150, -150)" d="M 300 300 L 300 2.5 C 300 2.5 299.4 2.4 298.9 2.4 C 298.9 2.4 273.4 0.10000000000000009 258.4 0 C 243.39999999999998 0 217.79999999999998 2.4 217.79999999999998 2.4 C 205.49999999999997 3.5 187.49999999999997 4.2 185.89999999999998 4.3 C 183.89999999999998 4.2 166.2 3.5 153.89999999999998 2.4 C 153.89999999999998 2.4 128.09999999999997 2.6999999999999997 113.09999999999998 0 C 98.09999999999998 0 72.29999999999998 2.4 72.29999999999998 2.4 C 59.999999999999986 3.5 41.899999999999984 4.2 40.29999999999998 4.3 C 38.29999999999998 4.2 20.299999999999983 3.5 8.09999999999998 2.4 C 8.09999999999998 2.4 4.9999999999999805 2.1 -1.9539925233402755e-14 1.7 L -1.9539925233402755e-14 300 L 300 300 z" stroke-linecap="round" />
</g>
<g transform="matrix(3.6 0 0 3.6 540 540)" id="waveShape"  >
<linearGradient id="SVGID_Gradient1_9" gradientUnits="objectBoundingBox" gradientTransform="matrix(1 0 0 1 0 0)"  x1="0" y1="0" x2="0" y2="1">
<stop offset="5%" style="stop-color:rgb(4,3,65);stop-opacity: 1"/>
<stop offset="33%" style="stop-color:rgb(25,17,150);stop-opacity: 1"/>
<stop offset="50%" style="stop-color:rgb(4,4,106);stop-opacity: 1"/>
<stop offset="100%" style="stop-color:rgb(0,212,255);stop-opacity: 1"/>
</linearGradient>
<path style="stroke: none; stroke-width: 1; stroke-dasharray: none; stroke-linecap: butt; stroke-dashoffset: 0; stroke-linejoin: miter; stroke-miterlimit: 4; fill: url(#SVGID_Gradient1_9); fill-rule: nonzero; opacity: 1;"  transform=" translate(-150, -150)" d="M 300 300 L 300 2.5 C 300 2.5 299.4 2.4 298.9 2.4 C 298.9 2.4 273.4 0.10000000000000009 258.4 0 C 243.39999999999998 0 217.79999999999998 2.4 217.79999999999998 2.4 C 205.49999999999997 3.5 187.49999999999997 4.2 185.89999999999998 4.3 C 183.89999999999998 4.2 166.2 3.5 153.89999999999998 2.4 C 153.89999999999998 2.4 128.09999999999997 2.6999999999999997 113.09999999999998 0 C 98.09999999999998 0 72.29999999999998 2.4 72.29999999999998 2.4 C 59.999999999999986 3.5 41.899999999999984 4.2 40.29999999999998 4.3 C 38.29999999999998 4.2 20.299999999999983 3.5 8.09999999999998 2.4 C 8.09999999999998 2.4 4.9999999999999805 2.1 -1.9539925233402755e-14 1.7 L -1.9539925233402755e-14 300 L 300 300 z" stroke-linecap="round" />
</g>
</svg>